<?xml version="1.0" encoding="utf-8"?>
<!-- Generator: Adobe Illustrator 27.8.1, SVG Export Plug-In . SVG Version: 6.00 Build 0)  -->
<svg version="1.1" xmlns="http://www.w3.org/2000/svg" xmlns:xlink="http://www.w3.org/1999/xlink" x="0px" y="0px" width="820px"
	 height="458.609px" viewBox="0 0 820 458.609" style="enable-background:new 0 0 820 458.609;" xml:space="preserve">
<style type="text/css">
	.st0{fill:#F5F5F5;}
	.st1{fill:#FFFFFF;}
	.st2{fill:url(#SVGID_1_);}
	.st3{fill:url(#SVGID_00000003070527554527300690000011270916368056957608_);}
	.st4{fill:url(#SVGID_00000152968297406835735320000003790659751948870790_);}
	.st5{fill:url(#SVGID_00000011031582126451911600000008940162531349278852_);}
	.st6{fill:url(#SVGID_00000005964755327126886550000010466682550405674166_);}
	.st7{fill:url(#SVGID_00000160167495480400590270000003724858338325728154_);}
	.st8{fill:url(#SVGID_00000051348072834492758100000007911247760895417736_);}
	.st9{fill:url(#SVGID_00000143600563040416850350000003804646580880129460_);}
	.st10{enable-background:new    ;}
	.st11{fill:#333333;}
</style>
<g id="GUIDE">
	<rect x="110.553" y="31.824" class="st0" width="669.148" height="387.842"/>
	<path class="st1" d="M723.023,421.788c-0.553,0-1-0.447-1-1V31.78c0-0.552,0.447-1,1-1s1,0.448,1,1v389.008
		C724.023,421.34,723.576,421.788,723.023,421.788z"/>
	<path class="st1" d="M644.839,421.788c-0.553,0-1-0.447-1-1V31.78c0-0.552,0.447-1,1-1s1,0.448,1,1v389.008
		C645.839,421.34,645.392,421.788,644.839,421.788z"/>
	<path class="st1" d="M566.654,421.788c-0.553,0-1-0.447-1-1V31.78c0-0.552,0.447-1,1-1s1,0.448,1,1v389.008
		C567.654,421.34,567.207,421.788,566.654,421.788z"/>
	<path class="st1" d="M488.47,421.788c-0.553,0-1-0.447-1-1V31.78c0-0.552,0.447-1,1-1s1,0.448,1,1v389.008
		C489.47,421.34,489.022,421.788,488.47,421.788z"/>
	<path class="st1" d="M410.286,421.788c-0.552,0-1-0.447-1-1V31.78c0-0.552,0.448-1,1-1s1,0.448,1,1v389.008
		C411.285,421.34,410.838,421.788,410.286,421.788z"/>
	<path class="st1" d="M332.101,421.788c-0.552,0-1-0.447-1-1V31.78c0-0.552,0.448-1,1-1s1,0.448,1,1v389.008
		C333.101,421.34,332.653,421.788,332.101,421.788z"/>
	<path class="st1" d="M253.917,421.788c-0.552,0-1-0.447-1-1V31.78c0-0.552,0.448-1,1-1s1,0.448,1,1v389.008
		C254.917,421.34,254.469,421.788,253.917,421.788z"/>
	<path class="st1" d="M175.732,421.788c-0.552,0-1-0.447-1-1V31.78c0-0.552,0.448-1,1-1s1,0.448,1,1v389.008
		C176.732,421.34,176.284,421.788,175.732,421.788z"/>
	<g>
		
			<linearGradient id="SVGID_1_" gradientUnits="userSpaceOnUse" x1="216.6233" y1="601.0237" x2="254.0453" y2="536.207" gradientTransform="matrix(6.123234e-17 -1 -1 -6.123234e-17 713.2776 624.1664)">
			<stop  offset="0" style="stop-color:#00B4E5"/>
			<stop  offset="1" style="stop-color:#1CD0BB"/>
		</linearGradient>
		<polygon class="st2" points="111.551,371.339 111.551,406.325 177.774,406.325 177.774,371.339 		"/>
		
			<linearGradient id="SVGID_00000074417815619370063520000009696282317548851386_" gradientUnits="userSpaceOnUse" x1="244.8095" y1="590.6816" x2="318.0574" y2="463.8125" gradientTransform="matrix(6.123234e-17 -1 -1 -6.123234e-17 713.2776 624.1664)">
			<stop  offset="0" style="stop-color:#00B4E5"/>
			<stop  offset="1" style="stop-color:#1CD0BB"/>
		</linearGradient>
		<polygon style="fill:url(#SVGID_00000074417815619370063520000009696282317548851386_);" points="111.551,325.24 111.551,360.226 
			260.51,360.226 260.51,325.24 		"/>
		
			<linearGradient id="SVGID_00000036968459625894814370000015857193950416827309_" gradientUnits="userSpaceOnUse" x1="281.3992" y1="585.1914" x2="373.6659" y2="425.3808" gradientTransform="matrix(6.123234e-17 -1 -1 -6.123234e-17 713.2776 624.1664)">
			<stop  offset="0" style="stop-color:#00B4E5"/>
			<stop  offset="1" style="stop-color:#1CD0BB"/>
		</linearGradient>
		<polygon style="fill:url(#SVGID_00000036968459625894814370000015857193950416827309_);" points="111.551,279.141 
			111.551,314.127 304.432,314.127 304.432,279.141 		"/>
		
			<linearGradient id="SVGID_00000070100539879548855480000015571224906217582736_" gradientUnits="userSpaceOnUse" x1="317.1044" y1="579.1905" x2="430.159" y2="383.3742" gradientTransform="matrix(6.123234e-17 -1 -1 -6.123234e-17 713.2776 624.1664)">
			<stop  offset="0" style="stop-color:#00B4E5"/>
			<stop  offset="1" style="stop-color:#1CD0BB"/>
		</linearGradient>
		<polygon style="fill:url(#SVGID_00000070100539879548855480000015571224906217582736_);" points="111.551,233.042 
			111.551,268.028 352.44,268.028 352.44,233.042 		"/>
		
			<linearGradient id="SVGID_00000054971534022233545390000013279783371912250752_" gradientUnits="userSpaceOnUse" x1="366.0784" y1="580.8503" x2="473.3832" y2="394.993" gradientTransform="matrix(6.123234e-17 -1 -1 -6.123234e-17 713.2776 624.1664)">
			<stop  offset="0" style="stop-color:#00B4E5"/>
			<stop  offset="1" style="stop-color:#1CD0BB"/>
		</linearGradient>
		<polygon style="fill:url(#SVGID_00000054971534022233545390000013279783371912250752_);" points="111.551,186.943 
			111.551,221.928 339.161,221.928 339.161,186.943 		"/>
		
			<linearGradient id="SVGID_00000060731561260193275860000011814382488717093760_" gradientUnits="userSpaceOnUse" x1="393.38" y1="569.9975" x2="538.2799" y2="319.0235" gradientTransform="matrix(6.123234e-17 -1 -1 -6.123234e-17 713.2776 624.1664)">
			<stop  offset="0" style="stop-color:#00B4E5"/>
			<stop  offset="1" style="stop-color:#1CD0BB"/>
		</linearGradient>
		<polygon style="fill:url(#SVGID_00000060731561260193275860000011814382488717093760_);" points="111.551,140.844 
			111.551,175.829 425.984,175.829 425.984,140.844 		"/>
		
			<linearGradient id="SVGID_00000102520148008304014690000013577075729763495814_" gradientUnits="userSpaceOnUse" x1="394.3649" y1="543.9508" x2="629.4932" y2="136.6967" gradientTransform="matrix(6.123234e-17 -1 -1 -6.123234e-17 713.2776 624.1664)">
			<stop  offset="0" style="stop-color:#00B4E5"/>
			<stop  offset="1" style="stop-color:#1CD0BB"/>
		</linearGradient>
		<polygon style="fill:url(#SVGID_00000102520148008304014690000013577075729763495814_);" points="111.551,94.745 111.551,129.73 
			634.357,129.73 634.357,94.745 		"/>
		
			<linearGradient id="SVGID_00000023244755813659215970000015189282864979358336_" gradientUnits="userSpaceOnUse" x1="419.8973" y1="532.0766" x2="696.1591" y2="53.5771" gradientTransform="matrix(6.123234e-17 -1 -1 -6.123234e-17 713.2776 624.1664)">
			<stop  offset="0" style="stop-color:#00B4E5"/>
			<stop  offset="1" style="stop-color:#1CD0BB"/>
		</linearGradient>
		<polygon style="fill:url(#SVGID_00000023244755813659215970000015189282864979358336_);" points="111.551,48.645 111.551,83.631 
			729.351,83.631 729.351,48.645 		"/>
	</g>
</g>
<g id="Layer_7">
	<g>
		<g class="st10">
			<path class="st11" d="M166.883,432.824l-1.511,0.42l-0.312-1.199l2.267-0.72h1.02v8.455h-1.463L166.883,432.824L166.883,432.824z
				"/>
			<path class="st11" d="M170.184,435.606v-0.023c0-2.399,1.463-4.342,3.67-4.342c2.195,0,3.646,1.919,3.646,4.317v0.024
				c0,2.398-1.463,4.341-3.67,4.341C171.623,439.923,170.184,438.004,170.184,435.606z M175.977,435.606v-0.023
				c0-1.655-0.852-3.011-2.147-3.011s-2.123,1.319-2.123,2.986v0.024c0,1.654,0.839,3.01,2.146,3.01
				C175.162,438.592,175.977,437.249,175.977,435.606z"/>
			<path class="st11" d="M178.872,435.606v-0.023c0-2.399,1.463-4.342,3.67-4.342c2.195,0,3.646,1.919,3.646,4.317v0.024
				c0,2.398-1.463,4.341-3.67,4.341C180.311,439.923,178.872,438.004,178.872,435.606z M184.665,435.606v-0.023
				c0-1.655-0.852-3.011-2.147-3.011c-1.295,0-2.123,1.319-2.123,2.986v0.024c0,1.654,0.84,3.01,2.147,3.01
				S184.665,437.249,184.665,435.606z"/>
		</g>
	</g>
	<g>
		<g class="st10">
			<path class="st11" d="M68.609,392.884l2.89-2.459c1.151-0.983,1.571-1.511,1.571-2.267c0-0.828-0.588-1.308-1.355-1.308
				s-1.295,0.42-1.931,1.26l-1.056-0.828c0.804-1.115,1.595-1.751,3.094-1.751c1.643,0,2.771,1.008,2.771,2.507v0.024
				c0,1.319-0.695,2.038-2.183,3.25l-1.727,1.439h3.994v1.295h-6.068V392.884z"/>
			<path class="st11" d="M76.061,389.873v-0.023c0-2.399,1.463-4.342,3.67-4.342c2.195,0,3.646,1.919,3.646,4.317v0.024
				c0,2.398-1.463,4.341-3.67,4.341C77.5,394.191,76.061,392.272,76.061,389.873z M81.854,389.873v-0.023
				c0-1.655-0.852-3.011-2.147-3.011s-2.123,1.319-2.123,2.986v0.024c0,1.654,0.84,3.01,2.147,3.01S81.854,391.517,81.854,389.873z"
				/>
			<path class="st11" d="M86.14,387.091l-1.511,0.42l-0.312-1.199l2.267-0.72h1.02v8.455h-1.463v-6.956H86.14z"/>
			<path class="st11" d="M94.418,390.197c-0.467,0.563-1.115,0.899-1.979,0.899c-1.787,0-2.975-1.044-2.975-2.663v-0.023
				c0-1.644,1.271-2.902,3.13-2.902c1.055,0,1.739,0.3,2.339,0.888c0.611,0.623,1.007,1.547,1.007,3.202v0.023
				c0,2.699-1.331,4.569-3.598,4.569c-1.163,0-1.979-0.419-2.687-1.007l0.804-1.128c0.636,0.528,1.199,0.792,1.919,0.792
				C93.866,392.848,94.406,391.313,94.418,390.197z M94.358,388.35v-0.023c0-0.876-0.684-1.547-1.751-1.547
				c-1.043,0-1.667,0.695-1.667,1.559v0.024c0,0.875,0.672,1.499,1.715,1.499C93.722,389.861,94.358,389.166,94.358,388.35z"/>
		</g>
	</g>
	<g>
		<g class="st10">
			<path class="st11" d="M68.609,346.879l2.89-2.459c1.151-0.983,1.571-1.511,1.571-2.267c0-0.828-0.588-1.308-1.355-1.308
				s-1.295,0.42-1.931,1.26l-1.056-0.828c0.804-1.115,1.595-1.751,3.094-1.751c1.643,0,2.771,1.008,2.771,2.507v0.024
				c0,1.319-0.695,2.038-2.183,3.25l-1.727,1.439h3.994v1.295h-6.068V346.879z"/>
			<path class="st11" d="M76.061,343.868v-0.023c0-2.399,1.463-4.342,3.67-4.342c2.195,0,3.646,1.919,3.646,4.317v0.024
				c0,2.398-1.463,4.341-3.67,4.341C77.5,348.186,76.061,346.267,76.061,343.868z M81.854,343.868v-0.023
				c0-1.655-0.852-3.011-2.147-3.011s-2.123,1.319-2.123,2.986v0.024c0,1.654,0.84,3.01,2.147,3.01S81.854,345.512,81.854,343.868z"
				/>
			<path class="st11" d="M84.533,346.879l2.89-2.459c1.151-0.983,1.571-1.511,1.571-2.267c0-0.828-0.588-1.308-1.355-1.308
				s-1.295,0.42-1.931,1.26l-1.056-0.828c0.804-1.115,1.595-1.751,3.094-1.751c1.643,0,2.771,1.008,2.771,2.507v0.024
				c0,1.319-0.695,2.038-2.183,3.25l-1.727,1.439h3.994v1.295h-6.068V346.879z"/>
			<path class="st11" d="M91.985,343.868v-0.023c0-2.399,1.463-4.342,3.67-4.342c2.195,0,3.646,1.919,3.646,4.317v0.024
				c0,2.398-1.463,4.341-3.67,4.341C93.424,348.186,91.985,346.267,91.985,343.868z M97.778,343.868v-0.023
				c0-1.655-0.852-3.011-2.147-3.011s-2.123,1.319-2.123,2.986v0.024c0,1.654,0.84,3.01,2.147,3.01S97.778,345.512,97.778,343.868z"
				/>
		</g>
	</g>
	<g>
		<g class="st10">
			<path class="st11" d="M68.609,300.873l2.891-2.459c1.151-0.983,1.571-1.511,1.571-2.267c0-0.828-0.588-1.308-1.355-1.308
				s-1.296,0.42-1.931,1.26l-1.056-0.828c0.804-1.115,1.595-1.751,3.094-1.751c1.644,0,2.771,1.008,2.771,2.507v0.024
				c0,1.319-0.695,2.038-2.183,3.25l-1.727,1.439h3.993v1.295h-6.068V300.873z"/>
			<path class="st11" d="M76.061,297.862v-0.023c0-2.399,1.463-4.342,3.67-4.342c2.194,0,3.646,1.919,3.646,4.317v0.024
				c0,2.398-1.463,4.341-3.67,4.341C77.5,302.18,76.061,300.261,76.061,297.862z M81.854,297.862v-0.023
				c0-1.655-0.852-3.011-2.147-3.011s-2.123,1.319-2.123,2.986v0.024c0,1.654,0.84,3.01,2.147,3.01
				C81.037,300.848,81.854,299.506,81.854,297.862z"/>
			<path class="st11" d="M84.533,300.873l2.891-2.459c1.151-0.983,1.571-1.511,1.571-2.267c0-0.828-0.588-1.308-1.355-1.308
				s-1.296,0.42-1.931,1.26l-1.056-0.828c0.804-1.115,1.595-1.751,3.094-1.751c1.644,0,2.771,1.008,2.771,2.507v0.024
				c0,1.319-0.695,2.038-2.183,3.25l-1.727,1.439h3.993v1.295h-6.068V300.873z"/>
			<path class="st11" d="M93.436,295.08l-1.512,0.42l-0.312-1.199l2.267-0.72h1.02v8.455h-1.463L93.436,295.08L93.436,295.08z"/>
		</g>
	</g>
	<g>
		<g class="st10">
			<path class="st11" d="M68.609,254.868l2.89-2.459c1.151-0.983,1.571-1.511,1.571-2.267c0-0.828-0.588-1.308-1.355-1.308
				s-1.295,0.42-1.931,1.26l-1.056-0.828c0.804-1.115,1.595-1.751,3.094-1.751c1.643,0,2.771,1.008,2.771,2.507v0.024
				c0,1.319-0.695,2.038-2.183,3.25l-1.727,1.439h3.994v1.295h-6.068V254.868z"/>
			<path class="st11" d="M76.061,251.857v-0.023c0-2.399,1.463-4.342,3.67-4.342c2.195,0,3.646,1.919,3.646,4.317v0.024
				c0,2.398-1.463,4.341-3.67,4.341C77.5,256.175,76.061,254.256,76.061,251.857z M81.854,251.857v-0.023
				c0-1.655-0.852-3.011-2.147-3.011s-2.123,1.319-2.123,2.986v0.024c0,1.654,0.84,3.01,2.147,3.01S81.854,253.501,81.854,251.857z"
				/>
			<path class="st11" d="M84.533,254.868l2.89-2.459c1.151-0.983,1.571-1.511,1.571-2.267c0-0.828-0.588-1.308-1.355-1.308
				s-1.295,0.42-1.931,1.26l-1.056-0.828c0.804-1.115,1.595-1.751,3.094-1.751c1.643,0,2.771,1.008,2.771,2.507v0.024
				c0,1.319-0.695,2.038-2.183,3.25l-1.727,1.439h3.994v1.295h-6.068V254.868z"/>
			<path class="st11" d="M91.889,254.868l2.89-2.459c1.151-0.983,1.571-1.511,1.571-2.267c0-0.828-0.588-1.308-1.355-1.308
				s-1.295,0.42-1.931,1.26l-1.056-0.828c0.804-1.115,1.595-1.751,3.094-1.751c1.643,0,2.771,1.008,2.771,2.507v0.024
				c0,1.319-0.695,2.038-2.183,3.25l-1.727,1.439h3.994v1.295h-6.068V254.868z"/>
		</g>
	</g>
	<g>
		<g class="st10">
			<path class="st11" d="M68.609,208.861l2.89-2.459c1.151-0.983,1.571-1.511,1.571-2.267c0-0.828-0.588-1.308-1.355-1.308
				s-1.295,0.42-1.931,1.26l-1.056-0.828c0.804-1.115,1.596-1.751,3.095-1.751c1.643,0,2.771,1.008,2.771,2.507v0.024
				c0,1.319-0.695,2.038-2.183,3.25l-1.728,1.439h3.994v1.295h-6.068V208.861z"/>
			<path class="st11" d="M76.06,205.85v-0.023c0-2.399,1.464-4.342,3.67-4.342c2.195,0,3.646,1.919,3.646,4.317v0.024
				c0,2.398-1.463,4.341-3.67,4.341S76.06,208.249,76.06,205.85z M81.853,205.85v-0.023c0-1.655-0.852-3.011-2.146-3.011
				c-1.296,0-2.123,1.319-2.123,2.986v0.024c0,1.654,0.84,3.01,2.146,3.01C81.038,208.836,81.853,207.494,81.853,205.85z"/>
			<path class="st11" d="M84.533,208.861l2.89-2.459c1.151-0.983,1.571-1.511,1.571-2.267c0-0.828-0.588-1.308-1.355-1.308
				s-1.295,0.42-1.931,1.26l-1.056-0.828c0.804-1.115,1.596-1.751,3.095-1.751c1.643,0,2.771,1.008,2.771,2.507v0.024
				c0,1.319-0.695,2.038-2.183,3.25l-1.728,1.439h3.994v1.295h-6.068V208.861z"/>
			<path class="st11" d="M91.816,208.693l1.032-0.96c0.6,0.708,1.271,1.104,2.206,1.104c0.828,0,1.451-0.504,1.451-1.271v-0.023
				c0-0.828-0.755-1.296-1.931-1.296H93.89l-0.24-0.923l2.268-2.411h-3.635v-1.283h5.554v1.104l-2.339,2.398
				c1.271,0.156,2.471,0.804,2.471,2.351v0.024c0,1.547-1.188,2.662-2.938,2.662C93.567,210.168,92.524,209.556,91.816,208.693z"/>
		</g>
	</g>
	<g>
		<g class="st10">
			<path class="st11" d="M68.609,162.857l2.891-2.459c1.151-0.983,1.571-1.511,1.571-2.267c0-0.828-0.588-1.308-1.355-1.308
				s-1.296,0.42-1.931,1.26l-1.056-0.828c0.804-1.115,1.595-1.751,3.094-1.751c1.644,0,2.771,1.008,2.771,2.507v0.024
				c0,1.319-0.695,2.038-2.183,3.25l-1.727,1.439h3.993v1.295h-6.068L68.609,162.857L68.609,162.857z"/>
			<path class="st11" d="M76.061,159.846v-0.023c0-2.399,1.463-4.342,3.67-4.342c2.194,0,3.646,1.919,3.646,4.317v0.024
				c0,2.398-1.463,4.341-3.67,4.341C77.5,164.164,76.061,162.245,76.061,159.846z M81.854,159.846v-0.023
				c0-1.655-0.852-3.011-2.147-3.011s-2.123,1.319-2.123,2.986v0.024c0,1.654,0.84,3.01,2.147,3.01
				C81.038,162.832,81.854,161.49,81.854,159.846z"/>
			<path class="st11" d="M84.533,162.857l2.891-2.459c1.151-0.983,1.571-1.511,1.571-2.267c0-0.828-0.588-1.308-1.355-1.308
				s-1.296,0.42-1.931,1.26l-1.056-0.828c0.804-1.115,1.595-1.751,3.094-1.751c1.644,0,2.771,1.008,2.771,2.507v0.024
				c0,1.319-0.695,2.038-2.183,3.25l-1.727,1.439h3.993v1.295h-6.068L84.533,162.857L84.533,162.857z"/>
			<path class="st11" d="M96.002,162.137h-4.233l-0.276-1.056l4.666-5.517h1.259v5.36h1.199v1.212h-1.199v1.883h-1.415v-1.882
				H96.002z M96.002,160.925v-3.321l-2.759,3.321H96.002z"/>
		</g>
	</g>
	<g>
		<g class="st10">
			<path class="st11" d="M68.609,116.85l2.891-2.459c1.15-0.983,1.57-1.511,1.57-2.267c0-0.828-0.588-1.308-1.355-1.308
				s-1.295,0.42-1.93,1.26l-1.057-0.828c0.805-1.115,1.596-1.751,3.095-1.751c1.644,0,2.771,1.008,2.771,2.507v0.024
				c0,1.319-0.695,2.038-2.183,3.25l-1.728,1.439h3.994v1.295h-6.068V116.85z"/>
			<path class="st11" d="M76.06,113.839v-0.023c0-2.399,1.464-4.342,3.67-4.342c2.195,0,3.646,1.919,3.646,4.317v0.024
				c0,2.398-1.463,4.341-3.67,4.341S76.06,116.238,76.06,113.839z M81.853,113.839v-0.023c0-1.655-0.852-3.011-2.146-3.011
				s-2.123,1.319-2.123,2.986v0.024c0,1.654,0.84,3.01,2.146,3.01C81.038,116.825,81.853,115.483,81.853,113.839z"/>
			<path class="st11" d="M84.533,116.85l2.891-2.459c1.15-0.983,1.57-1.511,1.57-2.267c0-0.828-0.588-1.308-1.355-1.308
				s-1.295,0.42-1.93,1.26l-1.057-0.828c0.805-1.115,1.596-1.751,3.095-1.751c1.644,0,2.771,1.008,2.771,2.507v0.024
				c0,1.319-0.695,2.038-2.183,3.25l-1.728,1.439h3.994v1.295h-6.068V116.85z"/>
			<path class="st11" d="M91.865,116.873l0.911-1.067c0.672,0.624,1.38,1.008,2.159,1.008c1.008,0,1.667-0.576,1.667-1.451v-0.024
				c0-0.852-0.72-1.391-1.739-1.391c-0.6,0-1.115,0.168-1.547,0.371l-0.888-0.587l0.239-4.114h5.025v1.308h-3.754l-0.131,1.967
				c0.395-0.144,0.768-0.24,1.33-0.24c1.632,0,2.927,0.864,2.927,2.639v0.024c0,1.715-1.259,2.842-3.118,2.842
				C93.664,118.157,92.656,117.641,91.865,116.873z"/>
		</g>
	</g>
	<g>
		<g class="st10">
			<path class="st11" d="M68.609,70.845l2.89-2.459c1.151-0.983,1.571-1.511,1.571-2.267c0-0.828-0.588-1.308-1.355-1.308
				s-1.295,0.42-1.931,1.26l-1.056-0.828c0.804-1.115,1.596-1.751,3.095-1.751c1.643,0,2.771,1.008,2.771,2.507v0.024
				c0,1.319-0.695,2.038-2.183,3.25l-1.728,1.439h3.994v1.295h-6.068L68.609,70.845L68.609,70.845z"/>
			<path class="st11" d="M76.061,67.834v-0.023c0-2.399,1.464-4.342,3.67-4.342c2.195,0,3.646,1.919,3.646,4.317v0.024
				c0,2.398-1.463,4.341-3.67,4.341S76.061,70.233,76.061,67.834z M81.853,67.834v-0.023c0-1.655-0.852-3.011-2.146-3.011
				c-1.296,0-2.123,1.319-2.123,2.986v0.024c0,1.654,0.84,3.01,2.146,3.01C81.038,70.82,81.853,69.478,81.853,67.834z"/>
			<path class="st11" d="M84.533,70.845l2.89-2.459c1.151-0.983,1.571-1.511,1.571-2.267c0-0.828-0.588-1.308-1.355-1.308
				s-1.295,0.42-1.931,1.26l-1.056-0.828c0.804-1.115,1.596-1.751,3.095-1.751c1.643,0,2.771,1.008,2.771,2.507v0.024
				c0,1.319-0.695,2.038-2.183,3.25l-1.728,1.439h3.994v1.295h-6.068L84.533,70.845L84.533,70.845z"/>
			<path class="st11" d="M93.004,71.265c-0.636-0.636-1.02-1.512-1.02-3.203v-0.023c0-2.566,1.224-4.569,3.599-4.569
				c1.091,0,1.835,0.348,2.566,0.936l-0.792,1.139c-0.587-0.455-1.079-0.731-1.822-0.731c-1.464,0-1.991,1.523-2.016,2.675
				c0.492-0.516,1.115-0.852,2.016-0.852c1.619,0,2.926,0.959,2.926,2.639v0.023c0,1.668-1.355,2.854-3.118,2.854
				C94.311,72.152,93.567,71.828,93.004,71.265z M96.986,69.358v-0.024c0-0.839-0.672-1.463-1.716-1.463
				c-1.043,0-1.703,0.672-1.703,1.476v0.023c0,0.852,0.696,1.499,1.739,1.499C96.351,70.868,96.986,70.221,96.986,69.358z"/>
		</g>
	</g>
	<g>
		<g class="st10">
			<path class="st11" d="M245.47,438.616l2.89-2.459c1.151-0.983,1.571-1.511,1.571-2.267c0-0.828-0.588-1.308-1.355-1.308
				s-1.295,0.42-1.931,1.26l-1.056-0.828c0.804-1.115,1.596-1.751,3.095-1.751c1.643,0,2.771,1.008,2.771,2.507v0.024
				c0,1.319-0.695,2.038-2.183,3.25l-1.728,1.439h3.994v1.295h-6.068V438.616z"/>
			<path class="st11" d="M252.921,435.606v-0.023c0-2.399,1.464-4.342,3.67-4.342c2.195,0,3.646,1.919,3.646,4.317v0.024
				c0,2.398-1.463,4.341-3.67,4.341S252.921,438.004,252.921,435.606z M258.714,435.606v-0.023c0-1.655-0.852-3.011-2.146-3.011
				c-1.296,0-2.123,1.319-2.123,2.986v0.024c0,1.654,0.84,3.01,2.146,3.01C257.899,438.592,258.714,437.249,258.714,435.606z"/>
			<path class="st11" d="M261.61,435.606v-0.023c0-2.399,1.463-4.342,3.67-4.342c2.194,0,3.646,1.919,3.646,4.317v0.024
				c0,2.398-1.463,4.341-3.67,4.341C263.049,439.923,261.61,438.004,261.61,435.606z M267.403,435.606v-0.023
				c0-1.655-0.852-3.011-2.147-3.011c-1.295,0-2.122,1.319-2.122,2.986v0.024c0,1.654,0.839,3.01,2.146,3.01
				S267.403,437.249,267.403,435.606z"/>
		</g>
	</g>
	<g>
		<g class="st10">
			<path class="st11" d="M323.337,438.446l1.032-0.959c0.6,0.707,1.271,1.104,2.207,1.104c0.828,0,1.451-0.504,1.451-1.271v-0.023
				c0-0.828-0.755-1.297-1.931-1.297h-0.684l-0.24-0.922l2.267-2.412h-3.634v-1.283h5.553v1.104l-2.339,2.398
				c1.271,0.156,2.471,0.805,2.471,2.352v0.023c0,1.547-1.188,2.662-2.938,2.662C325.088,439.921,324.045,439.309,323.337,438.446z"
				/>
			<path class="st11" d="M330.921,435.604v-0.023c0-2.4,1.463-4.342,3.67-4.342c2.195,0,3.646,1.918,3.646,4.316v0.025
				c0,2.398-1.463,4.34-3.67,4.34C332.36,439.921,330.921,438.003,330.921,435.604z M336.714,435.604v-0.023
				c0-1.656-0.852-3.012-2.147-3.012c-1.295,0-2.123,1.32-2.123,2.986v0.025c0,1.654,0.839,3.01,2.146,3.01
				C335.899,438.591,336.714,437.247,336.714,435.604z"/>
			<path class="st11" d="M339.609,435.604v-0.023c0-2.4,1.463-4.342,3.67-4.342c2.195,0,3.646,1.918,3.646,4.316v0.025
				c0,2.398-1.463,4.34-3.67,4.34C341.048,439.921,339.609,438.003,339.609,435.604z M345.402,435.604v-0.023
				c0-1.656-0.852-3.012-2.147-3.012s-2.123,1.32-2.123,2.986v0.025c0,1.654,0.84,3.01,2.147,3.01S345.402,437.247,345.402,435.604z
				"/>
		</g>
	</g>
	<g>
		<g class="st10">
			<path class="st11" d="M400.872,437.897h-4.234l-0.276-1.056l4.666-5.517h1.259v5.36h1.199v1.212h-1.199v1.883h-1.415
				L400.872,437.897z M400.872,436.685v-3.321l-2.759,3.321H400.872z"/>
			<path class="st11" d="M404.798,435.606v-0.023c0-2.399,1.463-4.342,3.67-4.342c2.195,0,3.646,1.919,3.646,4.317v0.024
				c0,2.398-1.463,4.341-3.67,4.341C406.238,439.923,404.798,438.004,404.798,435.606z M410.591,435.606v-0.023
				c0-1.655-0.852-3.011-2.147-3.011c-1.295,0-2.123,1.319-2.123,2.986v0.024c0,1.654,0.84,3.01,2.147,3.01
				C409.775,438.592,410.591,437.25,410.591,435.606z"/>
			<path class="st11" d="M413.486,435.606v-0.023c0-2.399,1.463-4.342,3.67-4.342c2.195,0,3.646,1.919,3.646,4.317v0.024
				c0,2.398-1.463,4.341-3.67,4.341C414.926,439.923,413.486,438.004,413.486,435.606z M419.279,435.606v-0.023
				c0-1.655-0.852-3.011-2.147-3.011s-2.123,1.319-2.123,2.986v0.024c0,1.654,0.839,3.01,2.146,3.01
				C418.464,438.592,419.279,437.25,419.279,435.606z"/>
		</g>
	</g>
	<g>
		<g class="st10">
			<path class="st11" d="M474.585,438.637l0.912-1.067c0.672,0.624,1.379,1.008,2.159,1.008c1.008,0,1.667-0.576,1.667-1.451v-0.024
				c0-0.852-0.72-1.391-1.739-1.391c-0.6,0-1.115,0.168-1.547,0.371l-0.887-0.587l0.24-4.114h5.025v1.308h-3.754l-0.132,1.967
				c0.396-0.144,0.768-0.24,1.331-0.24c1.631,0,2.926,0.864,2.926,2.639v0.024c0,1.715-1.259,2.842-3.118,2.842
				C476.384,439.92,475.377,439.405,474.585,438.637z"/>
			<path class="st11" d="M482.181,435.603v-0.023c0-2.399,1.463-4.342,3.67-4.342c2.195,0,3.646,1.919,3.646,4.317v0.024
				c0,2.398-1.463,4.341-3.67,4.341C483.62,439.92,482.181,438.002,482.181,435.603z M487.974,435.603v-0.023
				c0-1.655-0.852-3.011-2.147-3.011c-1.295,0-2.123,1.319-2.123,2.986v0.024c0,1.654,0.839,3.01,2.146,3.01
				C487.158,438.589,487.974,437.247,487.974,435.603z"/>
			<path class="st11" d="M490.868,435.603v-0.023c0-2.399,1.463-4.342,3.67-4.342c2.195,0,3.646,1.919,3.646,4.317v0.024
				c0,2.398-1.463,4.341-3.67,4.341C492.309,439.92,490.868,438.002,490.868,435.603z M496.661,435.603v-0.023
				c0-1.655-0.852-3.011-2.147-3.011c-1.295,0-2.123,1.319-2.123,2.986v0.024c0,1.654,0.839,3.01,2.146,3.01
				C495.847,438.589,496.661,437.247,496.661,435.603z"/>
		</g>
	</g>
	<g>
		<g class="st10">
			<path class="st11" d="M559.251,439.034c-0.636-0.636-1.02-1.512-1.02-3.203v-0.023c0-2.566,1.224-4.569,3.599-4.569
				c1.091,0,1.835,0.348,2.566,0.936l-0.792,1.139c-0.588-0.455-1.079-0.731-1.822-0.731c-1.464,0-1.991,1.523-2.016,2.675
				c0.492-0.516,1.115-0.852,2.016-0.852c1.618,0,2.926,0.959,2.926,2.639v0.023c0,1.668-1.355,2.854-3.118,2.854
				C560.559,439.922,559.815,439.598,559.251,439.034z M563.234,437.128v-0.024c0-0.839-0.672-1.463-1.716-1.463
				c-1.043,0-1.703,0.672-1.703,1.476v0.023c0,0.852,0.696,1.499,1.739,1.499C562.598,438.638,563.234,437.99,563.234,437.128z"/>
			<path class="st11" d="M566.104,435.604v-0.023c0-2.399,1.464-4.342,3.67-4.342c2.195,0,3.646,1.919,3.646,4.317v0.024
				c0,2.398-1.463,4.341-3.67,4.341C567.543,439.922,566.104,438.003,566.104,435.604z M571.897,435.604v-0.023
				c0-1.655-0.852-3.011-2.146-3.011c-1.296,0-2.123,1.319-2.123,2.986v0.024c0,1.654,0.84,3.01,2.146,3.01
				C571.082,438.59,571.897,437.247,571.897,435.604z"/>
			<path class="st11" d="M574.792,435.604v-0.023c0-2.399,1.463-4.342,3.67-4.342c2.194,0,3.646,1.919,3.646,4.317v0.024
				c0,2.398-1.463,4.341-3.67,4.341C576.232,439.922,574.792,438.003,574.792,435.604z M580.585,435.604v-0.023
				c0-1.655-0.852-3.011-2.147-3.011s-2.123,1.319-2.123,2.986v0.024c0,1.654,0.84,3.01,2.147,3.01
				C579.769,438.59,580.585,437.247,580.585,435.604z"/>
		</g>
	</g>
	<g>
		<g class="st10">
			<path class="st11" d="M634.107,432.68h-4.222v-1.296h5.901v1.115l-3.778,7.28h-1.667L634.107,432.68z"/>
			<path class="st11" d="M636.821,435.605v-0.023c0-2.399,1.463-4.342,3.67-4.342c2.195,0,3.646,1.919,3.646,4.317v0.024
				c0,2.398-1.463,4.341-3.67,4.341C638.261,439.923,636.821,438.004,636.821,435.605z M642.614,435.605v-0.023
				c0-1.655-0.852-3.011-2.147-3.011c-1.295,0-2.123,1.319-2.123,2.986v0.024c0,1.654,0.84,3.01,2.147,3.01
				S642.614,437.249,642.614,435.605z"/>
			<path class="st11" d="M645.509,435.605v-0.023c0-2.399,1.463-4.342,3.67-4.342c2.195,0,3.646,1.919,3.646,4.317v0.024
				c0,2.398-1.463,4.341-3.67,4.341C646.948,439.923,645.509,438.004,645.509,435.605z M651.302,435.605v-0.023
				c0-1.655-0.852-3.011-2.147-3.011c-1.295,0-2.123,1.319-2.123,2.986v0.024c0,1.654,0.839,3.01,2.146,3.01
				C650.487,438.592,651.302,437.249,651.302,435.605z"/>
		</g>
	</g>
	<g>
		<g class="st10">
			<path class="st11" d="M709.349,437.487v-0.023c0-1.008,0.563-1.644,1.511-2.039c-0.708-0.372-1.224-0.936-1.224-1.871v-0.024
				c0-1.283,1.235-2.267,2.915-2.267s2.915,0.972,2.915,2.267v0.024c0,0.936-0.516,1.499-1.224,1.871
				c0.924,0.42,1.511,1.02,1.511,2.015v0.024c0,1.499-1.367,2.435-3.202,2.435S709.349,438.939,709.349,437.487z M714.315,437.403
				v-0.023c0-0.768-0.768-1.271-1.763-1.271s-1.751,0.504-1.751,1.271v0.023c0,0.684,0.647,1.26,1.751,1.26
				S714.315,438.1,714.315,437.403z M714.051,433.697v-0.023c0-0.647-0.6-1.176-1.5-1.176c-0.9,0-1.499,0.528-1.499,1.164v0.023
				c0,0.731,0.636,1.247,1.499,1.247C713.415,434.933,714.051,434.417,714.051,433.697z"/>
			<path class="st11" d="M717.017,435.605v-0.023c0-2.399,1.463-4.342,3.67-4.342c2.195,0,3.646,1.919,3.646,4.317v0.024
				c0,2.398-1.463,4.341-3.67,4.341C718.457,439.922,717.017,438.003,717.017,435.605z M722.81,435.605v-0.023
				c0-1.655-0.852-3.011-2.147-3.011s-2.123,1.319-2.123,2.986v0.024c0,1.654,0.84,3.01,2.147,3.01S722.81,437.248,722.81,435.605z"
				/>
			<path class="st11" d="M725.705,435.605v-0.023c0-2.399,1.463-4.342,3.67-4.342c2.195,0,3.646,1.919,3.646,4.317v0.024
				c0,2.398-1.463,4.341-3.67,4.341C727.145,439.922,725.705,438.003,725.705,435.605z M731.498,435.605v-0.023
				c0-1.655-0.852-3.011-2.147-3.011s-2.123,1.319-2.123,2.986v0.024c0,1.654,0.839,3.01,2.146,3.01
				C730.683,438.591,731.498,437.248,731.498,435.605z"/>
		</g>
	</g>
</g>
</svg>
